<?xml version="1.0" encoding="UTF-8"?>
<svg version="1.1" xmlns="http://www.w3.org/2000/svg" width="2000" height="2623">
<path d="M0 0 C11.2491538 2.24983076 11.2491538 2.24983076 16.37988281 3.75805664 C18.12979271 4.26894836 18.12979271 4.26894836 19.91505432 4.79016113 C21.16511765 5.15975952 22.41518097 5.52935791 23.703125 5.91015625 C25.06559411 6.30951635 26.4281823 6.70847043 27.7908783 7.10705566 C30.7292453 7.96734076 33.66683795 8.83020386 36.60385132 9.69509888 C41.34828815 11.0921166 46.09450266 12.48302442 50.84106445 13.87280273 C52.49623367 14.35748934 54.15140026 14.84218487 55.80656433 15.32688904 C57.0552382 15.6925488 57.0552382 15.6925488 58.3291378 16.06559563 C60.90687275 16.82069224 63.48444135 17.57635426 66.06196594 18.33216858 C84.85042916 23.8408179 103.65149743 29.30596719 122.45350647 34.7681694 C126.12233339 35.83410517 129.79104479 36.90043823 133.45975685 37.96676922 C157.84951146 45.05567973 182.24292899 52.1318923 206.63900757 59.19900513 C232.02155191 66.55198846 257.39767463 73.92697075 282.77257156 81.3062973 C307.82398705 88.59152643 332.87822275 95.86686028 357.9375 103.125 C383.30657704 110.47286977 408.66745849 117.84861732 434.02516937 125.23561096 C457.69945749 132.13211026 481.37762663 139.01494101 505.0625 145.875 C531.97026896 153.6685347 558.87185568 161.48318136 585.77115631 169.30589294 C610.82303661 176.59128064 635.87775154 183.8667238 660.9375 191.125 C686.30657704 198.47286977 711.66745849 205.84861732 737.02516937 213.23561096 C760.69945749 220.13211026 784.37762663 227.01494101 808.0625 233.875 C834.97026896 241.6685347 861.87185568 249.48318136 888.77115631 257.30589294 C913.82303661 264.59128064 938.87775154 271.8667238 963.9375 279.125 C989.30657704 286.47286977 1014.66745849 293.84861732 1040.02516937 301.23561096 C1063.69945749 308.13211026 1087.37762663 315.01494101 1111.0625 321.875 C1137.97026896 329.6685347 1164.87185568 337.48318136 1191.77115631 345.30589294 C1216.82303661 352.59128064 1241.87775154 359.8667238 1266.9375 367.125 C1292.30657704 374.47286977 1317.66745849 381.84861732 1343.02516937 389.23561096 C1366.69945749 396.13211026 1390.37762663 403.01494101 1414.0625 409.875 C1440.97026896 417.6685347 1467.87185568 425.48318136 1494.77115631 433.30589294 C1519.82303661 440.59128064 1544.87775154 447.8667238 1569.9375 455.125 C1593.62466766 461.98572351 1617.30510593 468.86930345 1640.98170471 475.76641083 C1666.3495245 483.156155 1691.71956114 490.53810609 1717.09719849 497.89407349 C1719.10161084 498.47510287 1721.10598641 499.05625897 1723.11035156 499.63745117 C1750.06566689 507.45241647 1777.034139 515.22138625 1804 523 C1804 572.83 1804 622.66 1804 674 C1809.28 675.32 1814.56 676.64 1820 678 C1823.22243878 678.84354244 1826.441262 679.69246376 1829.65649414 680.56201172 C1830.49305038 680.78704376 1831.32960663 681.01207581 1832.19151306 681.243927 C1834.88992411 681.97056671 1837.58764617 682.69971058 1840.28515625 683.4296875 C1841.22262632 683.68331181 1842.1600964 683.93693611 1843.12597466 684.198246 C1848.07814565 685.53868175 1853.02964956 686.88155343 1857.98071289 688.22607422 C1862.0357119 689.32671564 1866.0920516 690.42219528 1870.1496582 691.51318359 C1875.10458559 692.84546586 1880.05701033 694.18669964 1885.00784111 695.53412247 C1886.87301102 696.04022397 1888.73899457 696.5433382 1890.60585213 697.04317856 C1906.37929179 701.27075223 1921.15316874 705.45688162 1934 716 C1934.70511719 716.53109375 1935.41023438 717.0621875 1936.13671875 717.609375 C1949.61909371 728.31051347 1956.99620718 745.50314856 1960 762 C1960.37965395 766.29500225 1960.40425071 770.55230453 1960.37719816 774.86210519 C1960.38369493 776.71420954 1960.38369493 776.71420954 1960.39032295 778.60373014 C1960.39926924 782.01208204 1960.39491452 785.41993255 1960.38479719 788.82824863 C1960.37708526 792.5571427 1960.38691762 796.28599951 1960.3944377 800.01488832 C1960.40525548 806.56903173 1960.40495435 813.12310141 1960.39736467 819.67724828 C1960.386057 829.48908786 1960.3920761 839.30086527 1960.40142866 849.1127042 C1960.41685872 865.83612261 1960.41803629 882.559515 1960.41144943 899.282938 C1960.40482243 916.23031229 1960.40469578 933.17766797 1960.41249657 950.12504196 C1960.41298457 951.19547333 1960.41347256 952.2659047 1960.41397535 953.36877338 C1960.41598353 957.72848229 1960.41803663 962.08819117 1960.42014709 966.44790004 C1960.44155056 1010.70908385 1960.44360107 1054.97025391 1960.43809005 1099.2314416 C1960.43733434 1105.34783823 1960.43660672 1111.46423486 1960.43590808 1117.58063149 C1960.43569944 1119.40290486 1960.43569944 1119.40290486 1960.43548659 1121.26199182 C1960.43253485 1148.17970358 1960.43554654 1175.09741368 1960.43980437 1202.01512514 C1960.44038652 1205.69864205 1960.44095537 1209.38215896 1960.44152 1213.06567588 C1960.44303494 1222.93981537 1960.44456185 1232.81395486 1960.44611301 1242.68809434 C1960.45687061 1311.62265412 1960.46157063 1380.55721237 1960.45364285 1449.49177265 C1960.45342039 1451.4411081 1960.45342039 1451.4411081 1960.45319343 1453.42982406 C1960.45153442 1467.92145483 1960.44978483 1482.41308559 1960.44800042 1496.90471635 C1960.4478394 1498.21311182 1960.44767837 1499.52150729 1960.44751247 1500.86955111 C1960.44620465 1511.48853478 1960.44620465 1511.48853478 1960.44555128 1516.74333177 C1960.43515899 1600.44079358 1960.44292743 1684.13823437 1960.46655273 1767.83569336 C1960.47249606 1788.92592776 1960.47838759 1810.01616217 1960.48396206 1831.10639668 C1960.48430583 1832.40497556 1960.4846496 1833.70355445 1960.48500379 1835.04148421 C1960.49552983 1875.05815699 1960.50112511 1915.07482802 1960.5015192 1955.09150219 C1960.50153199 1956.3476685 1960.50154477 1957.60383482 1960.50155794 1958.89806677 C1960.50178622 1986.47248572 1960.50078022 2014.04690451 1960.49864888 2041.62132337 C1960.49789411 2051.4876293 1960.4972159 2061.35393523 1960.49656873 2071.22024117 C1960.49640604 2073.67475667 1960.49623838 2076.12927218 1960.49606572 2078.58378768 C1960.49334358 2117.7077291 1960.50190283 2156.83165776 1960.51591982 2195.95559643 C1960.53032135 2236.44973023 1960.52988524 2276.94383974 1960.5125451 2317.4379727 C1960.51074089 2321.78556673 1960.50900071 2326.13316078 1960.50731087 2330.48075485 C1960.50689037 2331.54773706 1960.50646987 2332.61471928 1960.50603662 2333.71403428 C1960.49973653 2350.61520141 1960.50684643 2367.51633521 1960.51952007 2384.41749764 C1960.53169654 2401.03263571 1960.52960763 2417.64772114 1960.51229975 2434.26285522 C1960.50257593 2444.00576907 1960.50377518 2453.74853342 1960.52112973 2463.49143751 C1960.53156379 2469.96348451 1960.5274713 2476.43541762 1960.51161324 2482.90745333 C1960.50303037 2486.57537091 1960.50055065 2490.24299272 1960.51599697 2493.91089453 C1960.62234892 2521.05454969 1957.41887216 2541.79678838 1937.91796875 2562.17578125 C1924.27684217 2575.20951073 1905.83404192 2582 1887.08203125 2582 C1878.00225187 2581.66825797 1868.73883866 2580.53317237 1860 2578 C1859.67 2577.34 1859.34 2576.68 1859 2576 C1857.20475923 2575.75833297 1855.4075517 2575.52756903 1853.60546875 2575.34375 C1850.3792958 2574.91810799 1847.24042641 2574.26171373 1844.0625 2573.5625 C1842.37833984 2573.19318359 1842.37833984 2573.19318359 1840.66015625 2572.81640625 C1839.34337891 2572.41228516 1839.34337891 2572.41228516 1838 2572 C1837.67 2571.34 1837.34 2570.68 1837 2570 C1835.12241043 2569.74734379 1833.24297737 2569.50454348 1831.3583622 2569.31114388 C1827.15577791 2568.75668775 1823.12793087 2567.544994 1819.05151367 2566.40795898 C1818.08956085 2566.14446655 1817.12760803 2565.88097412 1816.13650513 2565.60949707 C1812.97892569 2564.74337216 1809.82350451 2563.86963184 1806.66796875 2562.99609375 C1804.46714749 2562.39158469 1802.2661612 2561.78767611 1800.0650177 2561.18434143 C1794.28637428 2559.5992209 1788.50938736 2558.00815562 1782.73291016 2556.41516113 C1773.46994027 2553.86085987 1764.20552733 2551.31185924 1754.93914223 2548.76997566 C1751.70143534 2547.88029 1748.46509053 2546.98576903 1745.22880554 2546.09092712 C1743.25309702 2545.54796516 1741.27733593 2545.00519443 1739.30151367 2544.46264648 C1738.39914474 2544.21174759 1737.49677582 2543.96084869 1736.56706238 2543.7023468 C1735.32871643 2543.3637413 1735.32871643 2543.3637413 1734.06535339 2543.01829529 C1732.98999722 2542.72158259 1732.98999722 2542.72158259 1731.89291668 2542.41887569 C1729.83492793 2541.89197043 1729.83492793 2541.89197043 1727 2542 C1727 2541.34 1727 2540.68 1727 2540 C1726.29875 2539.96261719 1725.5975 2539.92523437 1724.875 2539.88671875 C1723.92625 2539.82097656 1722.9775 2539.75523437 1722 2539.6875 C1720.6078125 2539.60048828 1720.6078125 2539.60048828 1719.1875 2539.51171875 C1715.95959332 2538.99351314 1713.19728431 2537.9542301 1710.15637207 2536.78846741 C1706.86874428 2535.58636161 1703.52074695 2534.6753639 1700.140625 2533.7734375 C1699.42896179 2533.58028961 1698.71729858 2533.38714172 1697.98406982 2533.18814087 C1695.74033918 2532.58014415 1693.49520527 2531.97752547 1691.25 2531.375 C1689.73037515 2530.96388749 1688.21084307 2530.55243192 1686.69140625 2530.140625 C1679.89004661 2528.28205074 1679.89004661 2528.28205074 1673.06358337 2526.51989746 C1670.90726005 2525.97663518 1668.76749717 2525.38936751 1666.6262207 2524.78955078 C1665.73603241 2524.54072647 1664.84584412 2524.29190216 1663.92868042 2524.03553772 C1662.93772369 2523.7582634 1661.94676697 2523.48098907 1660.92578125 2523.1953125 C1623.16902902 2512.66454995 1585.34773003 2502.37490522 1547.51391888 2492.12504721 C1535.48297039 2488.8656006 1523.45222802 2485.60539378 1511.421875 2482.34375 C1510.70791549 2482.15018567 1509.99395598 2481.95662134 1509.25836134 2481.75719142 C1477.88313078 2473.25048792 1446.52365001 2464.68661638 1415.16889238 2456.10480118 C1411.85450201 2455.19766243 1408.54008864 2454.29060773 1405.22567749 2453.38354492 C1403.89512662 2453.01940679 1402.56457579 2452.65526851 1401.234025 2452.29113007 C1395.22933619 2450.64780231 1389.22464253 2449.00449229 1383.21993661 2447.36122704 C1381.21511877 2446.81257527 1379.21030707 2446.26390109 1377.20549583 2445.71522522 C1346.58098209 2437.33410896 1315.94964624 2428.97804567 1285.31716204 2420.62611532 C1282.5605811 2419.87452874 1279.80400824 2419.12291253 1277.04743534 2418.37129647 C1265.31588568 2415.17253858 1253.5842902 2411.97394877 1241.85261536 2408.77565002 C1222.56291071 2403.51686541 1203.27351987 2398.25693124 1183.984375 2392.99609375 C1183.30398068 2392.81052642 1182.62358637 2392.62495909 1181.92257404 2392.43376851 C1175.73790529 2390.7469921 1169.55324006 2389.06020277 1163.36857986 2387.37339497 C1153.74606363 2384.74894464 1144.1235277 2382.12456651 1134.50097656 2379.50024414 C1133.82032245 2379.31461186 1133.13966834 2379.12897959 1132.43838835 2378.93772209 C1129.00067643 2378.00016803 1125.56296418 2377.06261521 1122.12525177 2376.12506294 C1115.93766069 2374.43754766 1109.7500726 2372.75002142 1103.56248426 2371.06249607 C1100.12498963 2370.12499693 1096.68749481 2369.1874985 1093.25 2368.25 C1091.875 2367.875 1090.5 2367.5 1089.125 2367.125 C1088.1040625 2366.8465625 1088.1040625 2366.8465625 1087.0625 2366.5625 C1019 2348 950.9375 2329.4375 550.81250644 2220.31250173 C549.437485 2219.9374959 548.06246354 2219.56249014 546.68744206 2219.18748444 C543.25026994 2218.25007418 539.81309813 2217.31266275 536.37592697 2216.37524891 C530.18451214 2214.6866761 523.99309507 2212.99811154 517.80166602 2211.30959088 C514.3589867 2210.37070636 510.91630926 2209.43181497 507.47363281 2208.49291992 C506.79218783 2208.30707474 506.11074285 2208.12122956 505.40864801 2207.92975271 C495.8618162 2205.32610514 486.31508875 2202.72207522 476.76842928 2200.11779583 C470.65293521 2198.44953621 464.53740966 2196.78139205 458.421875 2195.11328125 C457.7480223 2194.92947474 457.0741696 2194.74566823 456.37989712 2194.55629182 C435.9738768 2188.99020507 415.56619832 2183.43022957 395.15750074 2177.87396777 C389.7827585 2176.41065341 384.40812617 2174.94693588 379.03356934 2173.48294067 C378.2822695 2173.27829158 377.53096967 2173.07364248 376.75690317 2172.8627919 C372.9979483 2171.83886018 369.23900852 2170.81487307 365.48007965 2169.79084587 C357.50626985 2167.61866561 349.532098 2165.44782416 341.55743527 2163.2787773 C336.13658111 2161.80422763 330.71616087 2160.32809 325.29605746 2158.85078317 C322.18663646 2158.00333469 319.07697207 2157.15679997 315.96689606 2156.31175804 C303.89955886 2153.03255135 291.84499558 2149.7118643 279.82714844 2146.25512695 C278.85000507 2145.97758922 277.87286171 2145.70005148 276.86610794 2145.41410351 C256.54945991 2139.51304894 241.71641147 2127.66746319 230.86328125 2109.5859375 C225.42506124 2099.62925757 222.85759085 2088.58235535 222.84178162 2077.29312134 C222.83684364 2076.53662115 222.83190566 2075.78012097 222.82681805 2075.00069654 C222.81151178 2072.47654069 222.80310115 2069.95241014 222.79467773 2067.42822266 C222.7850938 2065.61455057 222.77508342 2063.8008807 222.76467896 2061.98721313 C222.73767965 2057.07038403 222.71664318 2052.15354538 222.69667697 2047.23668337 C222.6747867 2042.0957087 222.6474129 2036.9547633 222.62062073 2031.81381226 C222.57073495 2022.08172029 222.52578086 2012.34961203 222.48259836 2002.61748827 C222.43319081 1991.5365249 222.37828573 1980.45559091 222.32291877 1969.37465596 C222.2091619 1946.58313139 222.10230917 1923.79157863 222 1901 C212.30315437 1898.17576581 202.60623281 1895.35179244 192.90922493 1892.52811539 C188.40215126 1891.21569009 183.89509985 1889.90318847 179.3881073 1888.59048462 C156.93385377 1882.0505463 134.47611108 1875.52287234 112.01152229 1869.01852036 C87.57128725 1861.9418914 63.13506758 1854.8514549 38.70578003 1847.73712158 C35.46036401 1846.79204423 32.2146889 1845.84786486 28.96878052 1844.90447998 C25.18698805 1843.80529044 21.40573895 1842.70425208 17.62491608 1841.60173225 C16.23219058 1841.1959305 14.83927439 1840.79078258 13.44615936 1840.38632011 C11.54407224 1839.83395657 9.64274167 1839.27898975 7.74145508 1838.72387695 C6.67494217 1838.41335892 5.60842926 1838.10284088 4.50959778 1837.78291321 C2 1837 2 1837 0 1836 C0 1230.12 0 624.24 0 0 Z M66 78 C66 644.94 66 1211.88 66 1796 C115.68472789 1810.67452991 115.68472789 1810.67452991 165.42834473 1825.1428833 C171.81836171 1826.98590545 178.20734273 1828.83251787 184.59650421 1830.67850304 C186.74792322 1831.29984343 188.89953846 1831.92049941 191.0512085 1832.54096985 C191.71894413 1832.7337083 192.38667976 1832.92644674 193.07464981 1833.12502575 C194.38610211 1833.50354313 195.69767159 1833.8816548 197.00936508 1834.25933552 C200.57117172 1835.28752528 204.12649414 1836.33469605 207.67687988 1837.40170288 C208.4523328 1837.63359912 209.22778572 1837.86549536 210.02673721 1838.10441875 C211.52337881 1838.55273532 213.01902762 1839.00438366 214.51351547 1839.45982838 C217.44992768 1840.3376851 219.91657436 1841 223 1841 C223.0002442 1839.68799897 223.0004884 1838.37599794 223.00074001 1837.0242393 C223.00913181 1792.10201548 223.01841144 1747.17979186 223.02832031 1702.25756836 C223.02851985 1701.35258512 223.0287194 1700.44760188 223.02892498 1699.5151949 C223.05032991 1602.54842137 223.07757523 1505.58165156 223.11663818 1408.61488342 C223.11750436 1406.46107354 223.11837053 1404.30726366 223.1192367 1402.15345378 C223.13743543 1356.94475445 223.15645591 1311.73605551 223.1764257 1266.52735693 C223.18645626 1243.81764471 223.1963289 1221.10793243 223.20605225 1198.39822008 C223.2075199 1194.97253844 223.20899205 1191.54685681 223.2104644 1188.12117518 C223.23309761 1135.36840237 223.2523435 1082.61563098 223.26177979 1029.862854 C223.26198275 1028.72855962 223.26218571 1027.59426523 223.26239483 1026.42559828 C223.26564666 1008.13732994 223.2686143 989.84906155 223.27154423 971.56079315 C223.27998729 918.88708884 223.29053065 866.21338873 223.31498337 813.53968906 C223.31548516 812.45656854 223.31598695 811.37344802 223.31650395 810.25750566 C223.3275571 786.48076968 223.3396911 762.70403437 223.35284859 738.92729947 C223.35812362 729.36043871 223.36324305 719.79357787 223.36830902 710.226717 C223.36886722 709.17966374 223.36942543 708.13261049 223.37000055 707.05382836 C223.38791051 673.31388769 223.39315243 639.57395963 223.39175374 605.83401468 C223.39040282 571.84824164 223.4014679 537.86249715 223.42980235 503.87673517 C223.43371445 499.18062376 223.43748411 494.48451225 223.44116783 489.78840065 C223.4418951 488.86782617 223.44262237 487.94725168 223.44337167 486.998781 C223.45452009 472.41990639 223.45223903 457.84106597 223.44435814 443.26219052 C223.43688521 428.92765987 223.4436249 414.59319444 223.4654923 400.25867788 C223.47788456 391.8541663 223.47935937 383.4498246 223.46464847 375.04531577 C223.45494593 368.80518553 223.46607605 362.56525514 223.4853007 356.32515061 C223.48980809 353.81671983 223.48762022 351.30826581 223.47792076 348.79984972 C223.38973782 324.16649996 227.37428151 304.35249609 245.015625 285.890625 C257.78476269 273.68900454 275.33878915 266.39024669 293 266 C303.37249223 266.23999486 312.79627542 267.83939703 322.81640625 270.57421875 C324.30879157 270.97049941 325.80144418 271.36577448 327.29432678 271.76017761 C331.57609276 272.89698173 335.85189716 274.0549081 340.12650299 275.21831512 C343.13335752 276.03627759 346.14114773 276.85072877 349.14910889 277.66461182 C364.37510709 281.78732689 379.58909482 285.95360513 394.80078971 290.12870997 C402.51192132 292.24498436 410.2242049 294.35705017 417.93652344 296.46899414 C419.38480589 296.86560586 420.83308813 297.26221835 422.28137016 297.6588316 C424.47166972 298.25864458 426.66197065 298.85845256 428.85227668 299.45824188 C433.28947325 300.67333753 437.72659108 301.88872021 442.1636461 303.10433263 C471.64198035 311.18042466 501.12834172 319.22696324 530.61691529 327.26557618 C537.47859025 329.13608013 544.34016671 331.00694531 551.20173919 332.87782514 C560.1840604 335.32694102 569.1664084 337.77595858 578.14881897 340.2247467 C597.4380476 345.48339138 616.72695871 350.74319929 636.015625 356.00390625 C636.69601932 356.18947358 637.37641363 356.37504091 638.07742596 356.56623149 C644.26209471 358.2530079 650.44675994 359.93979723 656.63142014 361.62660503 C666.25393637 364.25105536 675.8764723 366.87543349 685.49902344 369.49975586 C686.17967755 369.68538814 686.86033166 369.87102041 687.56161165 370.06227791 C690.99932357 370.99983197 694.43703582 371.93738479 697.87474823 372.87493706 C704.06233931 374.56245234 710.2499274 376.24997858 716.43751574 377.93750393 C719.87501037 378.87500307 723.31250519 379.8125015 726.75 380.75 C728.125 381.125 729.5 381.5 730.875 381.875 C731.555625 382.060625 732.23625 382.24625 732.9375 382.4375 C801 401 869.0625 419.5625 1401.18749672 564.68749911 C1401.8681228 564.8731244 1402.54874889 565.0587497 1403.25 565.25 C1404.62501748 565.62500477 1406.00003497 566.00000954 1407.37505245 566.37501431 C1408.05567962 566.5606399 1408.73630678 566.74626549 1409.43755901 566.93751609 C1412.87475959 567.87493443 1416.31196018 568.81235278 1419.74916077 569.74977112 C1420.77003173 570.02819047 1420.77003173 570.02819047 1421.81152636 570.31223446 C1423.87435091 570.87482297 1425.93717545 571.43741149 1428 572 C1428.68113129 572.18576308 1429.36226259 572.37152616 1430.06403422 572.56291842 C1430.74529534 572.74871691 1431.42655645 572.9345154 1432.12846184 573.12594414 C1432.80976514 573.31175413 1433.49106845 573.49756412 1434.1930173 573.68900472 C1436.2572974 574.2519902 1438.32157749 574.81497568 1440.38585758 575.37796116 C1441.40746689 575.65658188 1441.40746689 575.65658188 1442.44971478 575.9408313 C1445.20088512 576.69115049 1447.95205545 577.44146967 1450.70322579 578.19178885 C1451.38364633 578.37735809 1452.06406686 578.56292733 1452.7651062 578.75411987 C1454.13877741 579.12875748 1455.51244863 579.50339508 1456.88611984 579.87803268 C1457.56533414 580.06327295 1458.24454844 580.24851321 1458.944345 580.43936682 C1460.99638081 580.99901295 1463.04841661 581.55865908 1465.10045242 582.11830521 C1465.77616053 582.30258924 1466.45186864 582.48687327 1467.14805275 582.67674166 C1469.8762447 583.42079401 1472.60443666 584.16484636 1475.33262861 584.90889871 C1476.0079808 585.09308567 1476.68333298 585.27727263 1477.37915039 585.46704102 C1478.7448314 585.83949947 1480.11051242 586.21195793 1481.47619343 586.58441639 C1482.15257876 586.76888512 1482.82896409 586.95335384 1483.52584594 587.14341253 C1485.57708514 587.7028414 1487.62832433 588.26227027 1489.67956352 588.82169914 C1490.35695603 589.00644255 1491.03434854 589.19118597 1491.7322681 589.38152766 C1493.10058045 589.75470376 1494.46889281 590.12787986 1495.83720517 590.50105596 C1496.51459768 590.68579937 1497.19199019 590.87054278 1497.88990974 591.06088448 C1500.63440228 591.80938244 1503.37889481 592.5578804 1506.12338734 593.30637836 C1506.80516123 593.4923167 1507.48693513 593.67825504 1508.18936884 593.86982787 C1508.87211638 594.05603174 1509.55486392 594.24223562 1510.25830078 594.43408203 C1510.941758 594.62047945 1511.62521521 594.80687688 1512.32938325 594.99892271 C1514.41028301 595.56644082 1516.49118276 596.13395894 1518.57208252 596.70147705 C1519.26261162 596.88980317 1519.95314072 597.07812929 1520.66459495 597.27216226 C1522.77028432 597.84644118 1522.77028432 597.84644118 1524.8759737 598.4207201 C1525.57690238 598.61188247 1526.27783106 598.80304483 1527 599 C1527.70757541 599.19297511 1528.41515081 599.38595022 1529.1441679 599.58477306 C1530.58555873 599.97787965 1532.02694956 600.37098623 1533.4683404 600.7640928 C1534.91960099 601.15989117 1536.37086155 601.55568961 1537.8221221 601.95148814 C1541.47175133 602.94684195 1545.12138095 603.94219434 1548.77101135 604.93754387 C1555.3408722 606.72931797 1561.91073045 608.52110156 1568.48057413 610.31293857 C1572.09528322 611.29880187 1575.70999453 612.28465701 1579.32470703 613.27050781 C1580.03682217 613.46472517 1580.7489373 613.65894253 1581.48263168 613.85904527 C1591.33184289 616.54523392 1601.18117561 619.23097658 1611.03059673 621.91639543 C1617.06860104 623.56265736 1623.10657133 625.20904404 1629.14453125 626.85546875 C1629.79295329 627.03227692 1630.44137533 627.20908509 1631.10944653 627.39125109 C1647.87144566 631.96187234 1664.63194155 636.53793593 1681.38997841 641.12306404 C1686.94570378 642.6429383 1692.501746 644.16165395 1698.05778408 645.68038464 C1702.99608497 647.03046319 1707.93377389 648.38274928 1712.870965 649.7368803 C1715.78090368 650.53447664 1718.69138865 651.33006357 1721.60204506 652.12503624 C1723.5359732 652.65393729 1725.46919442 653.18542111 1727.40238953 653.71699524 C1728.5233754 654.02275986 1729.64436127 654.32852448 1730.79931641 654.64355469 C1732.24729111 655.04027374 1732.24729111 655.04027374 1733.72451782 655.44500732 C1735.93347585 656.07898499 1735.93347585 656.07898499 1738 656 C1738 625.64 1738 595.28 1738 564 C1733.30928591 562.24098222 1728.88964612 560.59327978 1724.12255859 559.22021484 C1723.01584808 558.89971161 1721.90913757 558.57920837 1720.76889038 558.24899292 C1719.57414093 557.90643463 1718.37939148 557.56387634 1717.1484375 557.2109375 C1715.85030757 556.83616088 1714.55226535 556.46108037 1713.25430298 556.08572388 C1710.44657452 555.27436559 1707.63830195 554.46492895 1704.82958984 553.65698242 C1700.27997922 552.3481568 1695.73166337 551.03487225 1691.18359375 549.72070312 C1689.59271279 549.26104603 1688.00183144 548.80139028 1686.41094971 548.34173584 C1685.60936684 548.11012505 1684.80778397 547.87851425 1683.98191071 547.63988495 C1681.49313515 546.92093384 1679.00424048 546.20239636 1676.51531982 545.48394775 C1658.82681547 540.37719229 1641.14865133 535.23497809 1623.47076416 530.09161377 C1614.30375545 527.42452665 1605.13629558 524.75899109 1595.96875 522.09375 C1595.07133213 521.83284199 1594.17391426 521.57193398 1593.24930191 521.30311966 C1576.35935614 516.39292208 1559.46612381 511.4941146 1542.57149124 506.60007095 C1516.39779739 499.018058 1490.22871287 491.42029097 1464.0625 483.8125 C1462.71411482 483.42046576 1462.71411482 483.42046576 1461.33848953 483.02051163 C1446.6335204 478.74511599 1431.9287707 474.46896586 1417.2240448 470.19273376 C1403.46196529 466.19063803 1389.69981019 462.18880241 1375.9375 458.1875 C1375.03720692 457.925741 1374.13691383 457.66398201 1373.20933914 457.39429092 C1347.26223058 449.85029993 1321.31164983 442.31840652 1295.35714722 434.79989624 C1269.97484129 427.44698782 1244.5990002 420.07193257 1219.2243042 412.69281006 C1195.00980869 405.6511412 1170.79327064 398.61664531 1146.57149124 391.60007095 C1120.39779739 384.018058 1094.22871287 376.42029097 1068.0625 368.8125 C1067.16357655 368.55114384 1066.26465309 368.28978767 1065.33848953 368.02051163 C1050.6335204 363.74511599 1035.9287707 359.46896586 1021.2240448 355.19273376 C1007.46196529 351.19063803 993.69981019 347.18880241 979.9375 343.1875 C979.03720692 342.925741 978.13691383 342.66398201 977.20933914 342.39429092 C951.26223058 334.85029993 925.31164983 327.31840652 899.35714722 319.79989624 C873.97484129 312.44698782 848.5990002 305.07193257 823.2243042 297.69281006 C799.00980869 290.6511412 774.79327064 283.61664531 750.57149124 276.60007095 C724.39779739 269.018058 698.22871287 261.42029097 672.0625 253.8125 C671.16357655 253.55114384 670.26465309 253.28978767 669.33848953 253.02051163 C654.6335204 248.74511599 639.9287707 244.46896586 625.2240448 240.19273376 C611.46196529 236.19063803 597.69981019 232.18880241 583.9375 228.1875 C583.03720692 227.925741 582.13691383 227.66398201 581.20933914 227.39429092 C555.26223058 219.85029993 529.31164983 212.31840652 503.35714722 204.79989624 C477.97588173 197.44728922 452.60104533 190.07265699 427.22742844 182.6937027 C402.17601295 175.40847357 377.12177725 168.13313972 352.0625 160.875 C326.69342296 153.52713023 301.33254151 146.15138268 275.97483063 138.76438904 C250.92636639 131.46758184 225.87314569 124.18749605 200.81307983 116.93063354 C183.9280313 112.04106864 167.04548321 107.14303718 150.16687584 102.23127747 C147.21819654 101.37320614 144.26948037 100.51526164 141.320755 99.65734863 C132.67617045 97.14216848 124.03171108 94.62656381 115.38798141 92.10844707 C111.81697606 91.06836895 108.24570849 90.0291933 104.67438126 88.99022102 C103.02625218 88.5105318 101.37823373 88.03046229 99.73034286 87.54995537 C98.9579842 87.32475779 98.18562553 87.0995602 97.38986206 86.86753845 C96.72395491 86.67324721 96.05804775 86.47895597 95.37196159 86.27877712 C85.59860134 83.44366271 75.80776551 80.72437931 66 78 Z " fill="#EBAB56" transform="translate(20,18)"/>
<path d="M0 0 C18.42352465 4.60588116 18.42352465 4.60588116 25.65649414 6.56201172 C26.91132851 6.89955978 26.91132851 6.89955978 28.19151306 7.243927 C30.88992411 7.97056671 33.58764617 8.69971058 36.28515625 9.4296875 C37.22262632 9.68331181 38.1600964 9.93693611 39.12597466 10.198246 C44.07814565 11.53868175 49.02964956 12.88155343 53.98071289 14.22607422 C58.0357119 15.32671564 62.0920516 16.42219528 66.1496582 17.51318359 C71.10458559 18.84546586 76.05701033 20.18669964 81.00784111 21.53412247 C82.87301102 22.04022397 84.73899457 22.5433382 86.60585213 23.04317856 C102.37929179 27.27075223 117.15316874 31.45688162 130 42 C130.70511719 42.53109375 131.41023438 43.0621875 132.13671875 43.609375 C145.61909371 54.31051347 152.99620718 71.50314856 156 88 C156.37965395 92.29500225 156.40425071 96.55230453 156.37719816 100.86210519 C156.38369493 102.71420954 156.38369493 102.71420954 156.39032295 104.60373014 C156.39926924 108.01208204 156.39491452 111.41993255 156.38479719 114.82824863 C156.37708526 118.5571427 156.38691762 122.28599951 156.3944377 126.01488832 C156.40525548 132.56903173 156.40495435 139.12310141 156.39736467 145.67724828 C156.386057 155.48908786 156.3920761 165.30086527 156.40142866 175.1127042 C156.41685872 191.83612261 156.41803629 208.559515 156.41144943 225.282938 C156.40482243 242.23031229 156.40469578 259.17766797 156.41249657 276.12504196 C156.41298457 277.19547333 156.41347256 278.2659047 156.41397535 279.36877338 C156.41598353 283.72848229 156.41803663 288.08819117 156.42014709 292.44790004 C156.44155056 336.70908385 156.44360107 380.97025391 156.43809005 425.2314416 C156.43733434 431.34783823 156.43660672 437.46423486 156.43590808 443.58063149 C156.43569944 445.40290486 156.43569944 445.40290486 156.43548659 447.26199182 C156.43253485 474.17970358 156.43554654 501.09741368 156.43980437 528.01512514 C156.44038652 531.69864205 156.44095537 535.38215896 156.44152 539.06567588 C156.44303494 548.93981537 156.44456185 558.81395486 156.44611301 568.68809434 C156.45687061 637.62265412 156.46157063 706.55721237 156.45364285 775.49177265 C156.45342039 777.4411081 156.45342039 777.4411081 156.45319343 779.42982406 C156.45153442 793.92145483 156.44978483 808.41308559 156.44800042 822.90471635 C156.4478394 824.21311182 156.44767837 825.52150729 156.44751247 826.86955111 C156.44620465 837.48853478 156.44620465 837.48853478 156.44555128 842.74333177 C156.43515899 926.44079358 156.44292743 1010.13823437 156.46655273 1093.83569336 C156.47249606 1114.92592776 156.47838759 1136.01616217 156.48396206 1157.10639668 C156.48430583 1158.40497556 156.4846496 1159.70355445 156.48500379 1161.04148421 C156.49552983 1201.05815699 156.50112511 1241.07482802 156.5015192 1281.09150219 C156.50153199 1282.3476685 156.50154477 1283.60383482 156.50155794 1284.89806677 C156.50178622 1312.47248572 156.50078022 1340.04690451 156.49864888 1367.62132337 C156.49789411 1377.4876293 156.4972159 1387.35393523 156.49656873 1397.22024117 C156.49640604 1399.67475667 156.49623838 1402.12927218 156.49606572 1404.58378768 C156.49334358 1443.7077291 156.50190283 1482.83165776 156.51591982 1521.95559643 C156.53032135 1562.44973023 156.52988524 1602.94383974 156.5125451 1643.4379727 C156.51074089 1647.78556673 156.50900071 1652.13316078 156.50731087 1656.48075485 C156.50689037 1657.54773706 156.50646987 1658.61471928 156.50603662 1659.71403428 C156.49973653 1676.61520141 156.50684643 1693.51633521 156.51952007 1710.41749764 C156.53169654 1727.03263571 156.52960763 1743.64772114 156.51229975 1760.26285522 C156.50257593 1770.00576907 156.50377518 1779.74853342 156.52112973 1789.49143751 C156.53156379 1795.96348451 156.5274713 1802.43541762 156.51161324 1808.90745333 C156.50303037 1812.57537091 156.50055065 1816.24299272 156.51599697 1819.91089453 C156.62234892 1847.05454969 153.41887216 1867.79678838 133.91796875 1888.17578125 C120.27684217 1901.20951073 101.83404192 1908 83.08203125 1908 C74.00225187 1907.66825797 64.73883866 1906.53317237 56 1904 C55.67 1903.34 55.34 1902.68 55 1902 C53.20475923 1901.75833297 51.4075517 1901.52756903 49.60546875 1901.34375 C46.3792958 1900.91810799 43.24042641 1900.26171373 40.0625 1899.5625 C38.93972656 1899.31628906 37.81695313 1899.07007812 36.66015625 1898.81640625 C35.78230469 1898.54699219 34.90445312 1898.27757813 34 1898 C33.67 1897.34 33.34 1896.68 33 1896 C31.12241043 1895.74734379 29.24297737 1895.50454348 27.3583622 1895.31114388 C23.15577791 1894.75668775 19.12793087 1893.544994 15.05151367 1892.40795898 C14.08956085 1892.14446655 13.12760803 1891.88097412 12.13650513 1891.60949707 C8.97892569 1890.74337216 5.82350451 1889.86963184 2.66796875 1888.99609375 C0.46714749 1888.39158469 -1.7338388 1887.78767611 -3.9349823 1887.18434143 C-9.71362572 1885.5992209 -15.49061264 1884.00815562 -21.26708984 1882.41516113 C-30.53005973 1879.86085987 -39.79447267 1877.31185924 -49.06085777 1874.76997566 C-52.29856466 1873.88029 -55.53490947 1872.98576903 -58.77119446 1872.09092712 C-60.74690298 1871.54796516 -62.72266407 1871.00519443 -64.69848633 1870.46264648 C-65.60085526 1870.21174759 -66.50322418 1869.96084869 -67.43293762 1869.7023468 C-68.25850159 1869.4766098 -69.08406555 1869.2508728 -69.93464661 1869.01829529 C-71.01000278 1868.72158259 -71.01000278 1868.72158259 -72.10708332 1868.41887569 C-74.16507207 1867.89197043 -74.16507207 1867.89197043 -77 1868 C-77 1867.34 -77 1866.68 -77 1866 C-78.051875 1865.94392578 -78.051875 1865.94392578 -79.125 1865.88671875 C-80.07375 1865.82097656 -81.0225 1865.75523438 -82 1865.6875 C-82.928125 1865.62949219 -83.85625 1865.57148438 -84.8125 1865.51171875 C-88.04040668 1864.99351314 -90.80271569 1863.9542301 -93.84362793 1862.78846741 C-97.13125572 1861.58636161 -100.47925305 1860.6753639 -103.859375 1859.7734375 C-104.57103821 1859.58028961 -105.28270142 1859.38714172 -106.01593018 1859.18814087 C-108.25966082 1858.58014415 -110.50479473 1857.97752547 -112.75 1857.375 C-114.26962485 1856.96388749 -115.78915693 1856.55243192 -117.30859375 1856.140625 C-124.10995339 1854.28205074 -124.10995339 1854.28205074 -130.93641663 1852.51989746 C-133.09273995 1851.97663518 -135.23250283 1851.38936751 -137.3737793 1850.78955078 C-138.26396759 1850.54072647 -139.15415588 1850.29190216 -140.07131958 1850.03553772 C-141.55775467 1849.61962624 -141.55775467 1849.61962624 -143.07421875 1849.1953125 C-180.83097098 1838.66454995 -218.65226997 1828.37490522 -256.48608112 1818.12504721 C-268.51702961 1814.8656006 -280.54777198 1811.60539378 -292.578125 1808.34375 C-293.29208451 1808.15018567 -294.00604402 1807.95662134 -294.74163866 1807.75719142 C-326.11686922 1799.25048792 -357.47634999 1790.68661638 -388.83110762 1782.10480118 C-392.14549799 1781.19766243 -395.45991136 1780.29060773 -398.77432251 1779.38354492 C-400.10487338 1779.01940679 -401.43542421 1778.65526851 -402.765975 1778.29113007 C-408.77066381 1776.64780231 -414.77535747 1775.00449229 -420.78006339 1773.36122704 C-422.78488123 1772.81257527 -424.78969293 1772.26390109 -426.79450417 1771.71522522 C-457.41901791 1763.33410896 -488.05035376 1754.97804567 -518.68283796 1746.62611532 C-521.4394189 1745.87452874 -524.19599176 1745.12291253 -526.95256466 1744.37129647 C-538.68411432 1741.17253858 -550.4157098 1737.97394877 -562.14738464 1734.77565002 C-581.43708929 1729.51686541 -600.72648013 1724.25693124 -620.015625 1718.99609375 C-620.69601932 1718.81052642 -621.37641363 1718.62495909 -622.07742596 1718.43376851 C-628.26209471 1716.7469921 -634.44675994 1715.06020277 -640.63142014 1713.37339497 C-650.25393637 1710.74894464 -659.8764723 1708.12456651 -669.49902344 1705.50024414 C-670.17967755 1705.31461186 -670.86033166 1705.12897959 -671.56161165 1704.93772209 C-674.99932357 1704.00016803 -678.43703582 1703.06261521 -681.87474823 1702.12506294 C-688.06233931 1700.43754766 -694.2499274 1698.75002142 -700.43751574 1697.06249607 C-703.87501037 1696.12499693 -707.31250519 1695.1874985 -710.75 1694.25 C-712.125 1693.875 -713.5 1693.5 -714.875 1693.125 C-715.555625 1692.939375 -716.23625 1692.75375 -716.9375 1692.5625 C-785 1674 -853.0625 1655.4375 -1253.18749356 1546.31250173 C-1254.562515 1545.9374959 -1255.93753646 1545.56249014 -1257.31255794 1545.18748444 C-1260.74973006 1544.25007418 -1264.18690187 1543.31266275 -1267.62407303 1542.37524891 C-1273.81548786 1540.6866761 -1280.00690493 1538.99811154 -1286.19833398 1537.30959088 C-1289.6410133 1536.37070636 -1293.08369074 1535.43181497 -1296.52636719 1534.49291992 C-1297.20781217 1534.30707474 -1297.88925715 1534.12122956 -1298.59135199 1533.92975271 C-1308.1381838 1531.32610514 -1317.68491125 1528.72207522 -1327.23157072 1526.11779583 C-1333.34706479 1524.44953621 -1339.46259034 1522.78139205 -1345.578125 1521.11328125 C-1346.2519777 1520.92947474 -1346.9258304 1520.74566823 -1347.62010288 1520.55629182 C-1368.0261232 1514.99020507 -1388.43380168 1509.43022957 -1408.84249926 1503.87396777 C-1414.2172415 1502.41065341 -1419.59187383 1500.94693588 -1424.96643066 1499.48294067 C-1425.7177305 1499.27829158 -1426.46903033 1499.07364248 -1427.24309683 1498.8627919 C-1431.0020517 1497.83886018 -1434.76099148 1496.81487307 -1438.51992035 1495.79084587 C-1446.49373015 1493.61866561 -1454.467902 1491.44782416 -1462.44256473 1489.2787773 C-1467.86341889 1487.80422763 -1473.28383913 1486.32809 -1478.70394254 1484.85078317 C-1481.81336354 1484.00333469 -1484.92302793 1483.15679997 -1488.03310394 1482.31175804 C-1500.10044114 1479.03255135 -1512.15500442 1475.7118643 -1524.17285156 1472.25512695 C-1525.14999493 1471.97758922 -1526.12713829 1471.70005148 -1527.13389206 1471.41410351 C-1547.45054009 1465.51304894 -1562.28358853 1453.66746319 -1573.13671875 1435.5859375 C-1578.58111297 1425.61795338 -1581.16713851 1414.55989094 -1581.12025452 1403.25515747 C-1581.12110894 1402.49457373 -1581.12196337 1401.73399 -1581.12284368 1400.95035827 C-1581.12448536 1398.4123565 -1581.11899867 1395.87442143 -1581.11352539 1393.33642578 C-1581.11324321 1391.51290387 -1581.11340186 1389.68938184 -1581.1139679 1387.86585999 C-1581.11425466 1382.9221481 -1581.10837738 1377.97846051 -1581.10139394 1373.03475428 C-1581.09514037 1367.86577128 -1581.09455501 1362.69678771 -1581.09336853 1357.52780151 C-1581.09026113 1347.7425642 -1581.08205569 1337.95733806 -1581.07201904 1328.17210567 C-1581.06083956 1317.03070481 -1581.05534283 1305.88930341 -1581.05032361 1294.74789834 C-1581.0398726 1271.83192603 -1581.02228458 1248.91596364 -1581 1226 C-1579.23157948 1226.48128412 -1577.46323204 1226.96283677 -1575.69491577 1227.44450378 C-1574.21778138 1227.84670781 -1574.21778138 1227.84670781 -1572.71080589 1228.25703716 C-1569.93740244 1229.0171564 -1567.17298738 1229.80220211 -1564.4140625 1230.61328125 C-1563.4744165 1230.88865723 -1562.53477051 1231.1640332 -1561.56665039 1231.44775391 C-1560.59590576 1231.73312012 -1559.62516113 1232.01848633 -1558.625 1232.3125 C-1550.77850349 1234.61085155 -1542.9265172 1236.887325 -1535.0625 1239.125 C-1527.54973365 1241.26431838 -1520.05039018 1243.44476878 -1512.55859375 1245.65625 C-1498.53657396 1249.79420353 -1484.4965337 1253.86876064 -1470.43579102 1257.87304688 C-1463.79939854 1259.76537436 -1457.17712654 1261.70254489 -1450.55859375 1263.65625 C-1436.53657396 1267.79420353 -1422.4965337 1271.86876064 -1408.43579102 1275.87304688 C-1401.79939854 1277.76537436 -1395.17712654 1279.70254489 -1388.55859375 1281.65625 C-1374.53657396 1285.79420353 -1360.4965337 1289.86876064 -1346.43579102 1293.87304688 C-1341.17952616 1295.37183925 -1335.92989436 1296.89090532 -1330.6875 1298.4375 C-1330.01557617 1298.63561279 -1329.34365234 1298.83372559 -1328.65136719 1299.0378418 C-1327.22426576 1299.45876028 -1325.79718315 1299.87974257 -1324.37011719 1300.30078125 C-1323.58797852 1300.53152344 -1322.80583984 1300.76226563 -1322 1301 C-1321.10442383 1301.26425781 -1320.20884766 1301.52851562 -1319.28613281 1301.80078125 C-1308.59254696 1304.95166628 -1297.89412737 1308.05426398 -1287.125 1310.9375 C-1276.61677591 1313.75649909 -1266.23980543 1316.96237593 -1255.8515625 1320.19140625 C-1250.49208521 1321.85536254 -1245.11805042 1323.43311502 -1239.71484375 1324.94921875 C-1234.61295529 1326.39233967 -1229.5261142 1327.88585371 -1224.4375 1329.375 C-1216.65305602 1331.65080831 -1208.86289349 1333.90447642 -1201.0625 1336.125 C-1193.54976009 1338.26441264 -1186.05039107 1340.44476852 -1178.55859375 1342.65625 C-1164.53657396 1346.79420353 -1150.4965337 1350.86876064 -1136.43579102 1354.87304688 C-1129.79939854 1356.76537436 -1123.17712654 1358.70254489 -1116.55859375 1360.65625 C-1102.53657396 1364.79420353 -1088.4965337 1368.86876064 -1074.43579102 1372.87304688 C-1067.79939854 1374.76537436 -1061.17712654 1376.70254489 -1054.55859375 1378.65625 C-1040.53657396 1382.79420353 -1026.4965337 1386.86876064 -1012.43579102 1390.87304688 C-1007.17952616 1392.37183925 -1001.92989436 1393.89090532 -996.6875 1395.4375 C-996.01557617 1395.63561279 -995.34365234 1395.83372559 -994.65136719 1396.0378418 C-993.22426576 1396.45876028 -991.79718315 1396.87974257 -990.37011719 1397.30078125 C-989.19690918 1397.64689453 -989.19690918 1397.64689453 -988 1398 C-987.10442383 1398.26425781 -986.20884766 1398.52851563 -985.28613281 1398.80078125 C-974.59254696 1401.95166628 -963.89412737 1405.05426398 -953.125 1407.9375 C-942.61677591 1410.75649909 -932.23980543 1413.96237593 -921.8515625 1417.19140625 C-916.49208521 1418.85536254 -911.11805042 1420.43311502 -905.71484375 1421.94921875 C-900.61295529 1423.39233967 -895.5261142 1424.88585371 -890.4375 1426.375 C-882.65305602 1428.65080831 -874.86289349 1430.90447642 -867.0625 1433.125 C-859.54976009 1435.26441264 -852.05039107 1437.44476852 -844.55859375 1439.65625 C-830.53657396 1443.79420353 -816.4965337 1447.86876064 -802.43579102 1451.87304688 C-795.79939854 1453.76537436 -789.17712654 1455.70254489 -782.55859375 1457.65625 C-768.53657396 1461.79420353 -754.4965337 1465.86876064 -740.43579102 1469.87304688 C-733.79939854 1471.76537436 -727.17712654 1473.70254489 -720.55859375 1475.65625 C-706.53657396 1479.79420353 -692.4965337 1483.86876064 -678.43579102 1487.87304688 C-671.79939854 1489.76537436 -665.17712654 1491.70254489 -658.55859375 1493.65625 C-644.53657396 1497.79420353 -630.4965337 1501.86876064 -616.43579102 1505.87304688 C-610.49742715 1507.56633569 -604.56921457 1509.29128421 -598.64697266 1511.04003906 C-589.48030904 1513.74677303 -580.30225603 1516.41446772 -571.12597656 1519.08837891 C-568.0393106 1519.98853594 -564.95316805 1520.890465 -561.8671875 1521.79296875 C-551.39879155 1524.85319448 -540.92354038 1527.88629019 -530.43408203 1530.87353516 C-523.79825875 1532.76569782 -517.1765582 1534.70271266 -510.55859375 1536.65625 C-496.53657396 1540.79420353 -482.4965337 1544.86876064 -468.43579102 1548.87304688 C-461.79939854 1550.76537436 -455.17712654 1552.70254489 -448.55859375 1554.65625 C-434.53657396 1558.79420353 -420.4965337 1562.86876064 -406.43579102 1566.87304688 C-399.79939854 1568.76537436 -393.17712654 1570.70254489 -386.55859375 1572.65625 C-372.53657396 1576.79420353 -358.4965337 1580.86876064 -344.43579102 1584.87304688 C-337.79939854 1586.76537436 -331.17712654 1588.70254489 -324.55859375 1590.65625 C-310.53657396 1594.79420353 -296.4965337 1598.86876064 -282.43579102 1602.87304688 C-276.49742715 1604.56633569 -270.56921457 1606.29128421 -264.64697266 1608.04003906 C-255.48030904 1610.74677303 -246.30225603 1613.41446772 -237.12597656 1616.08837891 C-234.0393106 1616.98853594 -230.95316805 1617.890465 -227.8671875 1618.79296875 C-217.39879155 1621.85319448 -206.92354038 1624.88629019 -196.43408203 1627.87353516 C-189.79825875 1629.76569782 -183.1765582 1631.70271266 -176.55859375 1633.65625 C-163.70088309 1637.45061129 -150.83095232 1641.20387693 -137.9375 1644.875 C-120.31570226 1649.892604 -102.7206807 1655.0081511 -85.14648438 1660.18994141 C-70.59931443 1664.47864634 -56.03741651 1668.71479098 -41.45117188 1672.86865234 C-33.28596246 1675.19689101 -25.14274585 1677.59418873 -17 1680 C-11.39 1681.65 -5.78 1683.3 0 1685 C0 1128.95 0 572.9 0 0 Z " fill="#EBAB56" transform="translate(1824,692)"/>
<path d="M0 0 C11.2491538 2.24983076 11.2491538 2.24983076 16.37988281 3.75805664 C18.12979271 4.26894836 18.12979271 4.26894836 19.91505432 4.79016113 C21.16511765 5.15975952 22.41518097 5.52935791 23.703125 5.91015625 C25.06559411 6.30951635 26.4281823 6.70847043 27.7908783 7.10705566 C30.7292453 7.96734076 33.66683795 8.83020386 36.60385132 9.69509888 C41.34828815 11.0921166 46.09450266 12.48302442 50.84106445 13.87280273 C52.49623367 14.35748934 54.15140026 14.84218487 55.80656433 15.32688904 C57.0552382 15.6925488 57.0552382 15.6925488 58.3291378 16.06559563 C60.90687275 16.82069224 63.48444135 17.57635426 66.06196594 18.33216858 C84.85042916 23.8408179 103.65149743 29.30596719 122.45350647 34.7681694 C126.12233339 35.83410517 129.79104479 36.90043823 133.45975685 37.96676922 C157.84951146 45.05567973 182.24292899 52.1318923 206.63900757 59.19900513 C232.02155191 66.55198846 257.39767463 73.92697075 282.77257156 81.3062973 C307.82398705 88.59152643 332.87822275 95.86686028 357.9375 103.125 C383.30657704 110.47286977 408.66745849 117.84861732 434.02516937 125.23561096 C457.69945749 132.13211026 481.37762663 139.01494101 505.0625 145.875 C531.97026896 153.6685347 558.87185568 161.48318136 585.77115631 169.30589294 C610.82303661 176.59128064 635.87775154 183.8667238 660.9375 191.125 C686.30657704 198.47286977 711.66745849 205.84861732 737.02516937 213.23561096 C760.69945749 220.13211026 784.37762663 227.01494101 808.0625 233.875 C834.97026896 241.6685347 861.87185568 249.48318136 888.77115631 257.30589294 C913.82303661 264.59128064 938.87775154 271.8667238 963.9375 279.125 C989.30657704 286.47286977 1014.66745849 293.84861732 1040.02516937 301.23561096 C1063.69945749 308.13211026 1087.37762663 315.01494101 1111.0625 321.875 C1137.97026896 329.6685347 1164.87185568 337.48318136 1191.77115631 345.30589294 C1216.82303661 352.59128064 1241.87775154 359.8667238 1266.9375 367.125 C1292.30657704 374.47286977 1317.66745849 381.84861732 1343.02516937 389.23561096 C1366.69945749 396.13211026 1390.37762663 403.01494101 1414.0625 409.875 C1440.97026896 417.6685347 1467.87185568 425.48318136 1494.77115631 433.30589294 C1519.82303661 440.59128064 1544.87775154 447.8667238 1569.9375 455.125 C1593.62466766 461.98572351 1617.30510593 468.86930345 1640.98170471 475.76641083 C1666.3495245 483.156155 1691.71956114 490.53810609 1717.09719849 497.89407349 C1719.10161084 498.47510287 1721.10598641 499.05625897 1723.11035156 499.63745117 C1750.06566689 507.45241647 1777.034139 515.22138625 1804 523 C1804 1128.88 1804 1734.76 1804 2359 C1792.74580889 2356.74916178 1792.74580889 2356.74916178 1788.58203125 2355.51953125 C1787.64987793 2355.24616943 1786.71772461 2354.97280762 1785.75732422 2354.69116211 C1784.78553223 2354.40120361 1783.81374023 2354.11124512 1782.8125 2353.8125 C1781.77367676 2353.50642822 1780.73485352 2353.20035645 1779.66455078 2352.88500977 C1772.55359977 2350.78245942 1765.46324335 2348.61508898 1758.375 2346.4375 C1750.0682188 2343.88596998 1741.72669499 2341.52201158 1733.33496094 2339.26708984 C1723.52512497 2336.62356414 1713.78259681 2333.75960412 1704.03662109 2330.89111328 C1701.01179628 2330.00346168 1697.9848615 2329.12343463 1694.95703125 2328.24609375 C1685.07358197 2325.38037402 1675.2103915 2322.46428715 1665.375 2319.4375 C1657.06836729 2316.88552176 1648.72667644 2314.5220066 1640.33496094 2312.26708984 C1630.52512497 2309.62356414 1620.78259681 2306.75960412 1611.03662109 2303.89111328 C1608.01179628 2303.00346168 1604.9848615 2302.12343463 1601.95703125 2301.24609375 C1591.92806727 2298.33820592 1581.91941616 2295.37829201 1571.9375 2292.3125 C1564.66673302 2290.08168272 1557.39202526 2287.99550712 1550.03125 2286.08203125 C1541.68788044 2283.8781628 1533.4278624 2281.3569028 1525.14941406 2278.92333984 C1522.0777483 2278.02279411 1519.00417118 2277.12915448 1515.9296875 2276.23828125 C1506.05539192 2273.37504885 1496.20132715 2270.46149765 1486.375 2267.4375 C1478.06836729 2264.88552176 1469.72667644 2262.5220066 1461.33496094 2260.26708984 C1451.52512497 2257.62356414 1441.78259681 2254.75960412 1432.03662109 2251.89111328 C1429.01179628 2251.00346168 1425.9848615 2250.12343463 1422.95703125 2249.24609375 C1413.07358197 2246.38037402 1403.2103915 2243.46428715 1393.375 2240.4375 C1385.06836729 2237.88552176 1376.72667644 2235.5220066 1368.33496094 2233.26708984 C1358.52512497 2230.62356414 1348.78259681 2227.75960412 1339.03662109 2224.89111328 C1336.01179628 2224.00346168 1332.9848615 2223.12343463 1329.95703125 2222.24609375 C1320.07358197 2219.38037402 1310.2103915 2216.46428715 1300.375 2213.4375 C1292.06836729 2210.88552176 1283.72667644 2208.5220066 1275.33496094 2206.26708984 C1265.52381538 2203.62321124 1255.77963746 2200.75956544 1246.03222656 2197.89111328 C1241.02386309 2196.41925123 1236.01173176 2194.96034241 1231 2193.5 C1229.00129664 2192.91668533 1227.00259872 2192.33335199 1225.00390625 2191.75 C1220.99194506 2190.57965417 1216.97883513 2189.41336286 1212.96484375 2188.25 C1203.07929924 2185.38131965 1193.21310998 2182.46512375 1183.375 2179.4375 C1175.06836729 2176.88552176 1166.72667644 2174.5220066 1158.33496094 2172.26708984 C1148.52512497 2169.62356414 1138.78259681 2166.75960412 1129.03662109 2163.89111328 C1126.01179628 2163.00346168 1122.9848615 2162.12343463 1119.95703125 2161.24609375 C1110.07358197 2158.38037402 1100.2103915 2155.46428715 1090.375 2152.4375 C1082.06836729 2149.88552176 1073.72667644 2147.5220066 1065.33496094 2145.26708984 C1055.52512497 2142.62356414 1045.78259681 2139.75960412 1036.03662109 2136.89111328 C1033.01179628 2136.00346168 1029.9848615 2135.12343463 1026.95703125 2134.24609375 C1017.07358197 2131.38037402 1007.2103915 2128.46428715 997.375 2125.4375 C989.06836729 2122.88552176 980.72667644 2120.5220066 972.33496094 2118.26708984 C962.52512497 2115.62356414 952.78259681 2112.75960412 943.03662109 2109.89111328 C940.01179628 2109.00346168 936.9848615 2108.12343463 933.95703125 2107.24609375 C923.92806727 2104.33820592 913.91941616 2101.37829201 903.9375 2098.3125 C896.66673302 2096.08168272 889.39202526 2093.99550712 882.03125 2092.08203125 C873.68788044 2089.8781628 865.4278624 2087.3569028 857.14941406 2084.92333984 C854.0777483 2084.02279411 851.00417118 2083.12915448 847.9296875 2082.23828125 C838.05539192 2079.37504885 828.20132715 2076.46149765 818.375 2073.4375 C810.06836729 2070.88552176 801.72667644 2068.5220066 793.33496094 2066.26708984 C783.52512497 2063.62356414 773.78259681 2060.75960412 764.03662109 2057.89111328 C761.01179628 2057.00346168 757.9848615 2056.12343463 754.95703125 2055.24609375 C745.07358197 2052.38037402 735.2103915 2049.46428715 725.375 2046.4375 C717.06836729 2043.88552176 708.72667644 2041.5220066 700.33496094 2039.26708984 C690.52512497 2036.62356414 680.78259681 2033.75960412 671.03662109 2030.89111328 C668.01179628 2030.00346168 664.9848615 2029.12343463 661.95703125 2028.24609375 C652.07358197 2025.38037402 642.2103915 2022.46428715 632.375 2019.4375 C624.06836729 2016.88552176 615.72667644 2014.5220066 607.33496094 2012.26708984 C597.52512497 2009.62356414 587.78259681 2006.75960412 578.03662109 2003.89111328 C575.01179628 2003.00346168 571.9848615 2002.12343463 568.95703125 2001.24609375 C558.92806727 1998.33820592 548.91941616 1995.37829201 538.9375 1992.3125 C531.66673302 1990.08168272 524.39202526 1987.99550712 517.03125 1986.08203125 C508.68788044 1983.8781628 500.4278624 1981.3569028 492.14941406 1978.92333984 C489.0777483 1978.02279411 486.00417118 1977.12915448 482.9296875 1976.23828125 C473.05539192 1973.37504885 463.20132715 1970.46149765 453.375 1967.4375 C445.06836729 1964.88552176 436.72667644 1962.5220066 428.33496094 1960.26708984 C418.52512497 1957.62356414 408.78259681 1954.75960412 399.03662109 1951.89111328 C396.01179628 1951.00346168 392.9848615 1950.12343463 389.95703125 1949.24609375 C380.07358197 1946.38037402 370.2103915 1943.46428715 360.375 1940.4375 C352.06836729 1937.88552176 343.72667644 1935.5220066 335.33496094 1933.26708984 C325.52512497 1930.62356414 315.78259681 1927.75960412 306.03662109 1924.89111328 C303.01179628 1924.00346168 299.9848615 1923.12343463 296.95703125 1922.24609375 C287.07358181 1919.38037397 277.21039162 1916.46428775 267.375 1913.4375 C257.14684933 1910.29523797 246.85331387 1907.44071728 236.51806641 1904.67407227 C225.01776418 1901.59550581 213.57146824 1898.33453285 202.125 1895.0625 C201.07492767 1894.76244049 200.02485535 1894.46238098 198.94296265 1894.15322876 C172.50462296 1886.59504061 146.09583219 1878.93505092 119.68972778 1871.2651825 C110.10036437 1868.47998466 100.51006996 1865.69801945 90.91900158 1862.91869831 C83.11645036 1860.65758144 75.31439134 1858.3947715 67.5126543 1856.13084698 C62.75700763 1854.7508997 58.00115918 1853.37165794 53.24478149 1851.99423218 C48.75298852 1850.69337436 44.26184588 1849.39029352 39.77114677 1848.08566475 C38.12617885 1847.60816609 36.48099384 1847.13141444 34.83555794 1846.65553093 C34.06571508 1846.43283594 33.29587223 1846.21014095 32.50270081 1845.98069763 C31.83956155 1845.78912803 31.17642229 1845.59755842 30.4931879 1845.40018368 C20.26910038 1842.41155812 10.16880862 1839.21120272 0 1836 C0 1230.12 0 624.24 0 0 Z M66 78 C66 644.94 66 1211.88 66 1796 C116.6556688 1810.95539568 116.6556688 1810.95539568 167.375 1825.6875 C218.95714397 1840.54193564 218.95714397 1840.54193564 232.125 1845.0625 C239.08298089 1847.42861454 246.16430939 1849.36484087 253.234375 1851.36328125 C259.16638311 1853.04117471 265.08374893 1854.76749596 271 1856.5 C278.63850392 1858.73456756 286.28297176 1860.94595312 293.9375 1863.125 C301.45023866 1865.26441689 308.94960893 1867.44476851 316.44140625 1869.65625 C330.46342604 1873.79420353 344.5034663 1877.86876064 358.56420898 1881.87304688 C365.20060146 1883.76537436 371.82287346 1885.70254489 378.44140625 1887.65625 C392.46342604 1891.79420353 406.5034663 1895.86876064 420.56420898 1899.87304688 C427.20060146 1901.76537436 433.82287346 1903.70254489 440.44140625 1905.65625 C454.46342604 1909.79420353 468.5034663 1913.86876064 482.56420898 1917.87304688 C489.20060146 1919.76537436 495.82287346 1921.70254489 502.44140625 1923.65625 C516.46342604 1927.79420353 530.5034663 1931.86876064 544.56420898 1935.87304688 C550.50257285 1937.56633569 556.43078543 1939.29128421 562.35302734 1941.04003906 C569.44361762 1943.13374975 576.5410025 1945.20393789 583.6394043 1947.27099609 C588.79397482 1948.77220146 593.94732194 1950.2772871 599.09765625 1951.79296875 C608.66622154 1954.60433937 618.2413746 1957.35717385 627.875 1959.9375 C637.118581 1962.41826165 646.25583654 1965.19297178 655.39355469 1968.03662109 C663.80514269 1970.64948154 672.25060871 1973.10970611 680.7265625 1975.50390625 C686.49479543 1977.13377501 692.24742565 1978.81583855 698 1980.5 C705.63851984 1982.73451367 713.28297137 1984.94595301 720.9375 1987.125 C728.45023866 1989.26441689 735.94960893 1991.44476851 743.44140625 1993.65625 C757.46342604 1997.79420353 771.5034663 2001.86876064 785.56420898 2005.87304688 C792.20060146 2007.76537436 798.82287346 2009.70254489 805.44140625 2011.65625 C819.46342604 2015.79420353 833.5034663 2019.86876064 847.56420898 2023.87304688 C854.20060146 2025.76537436 860.82287346 2027.70254489 867.44140625 2029.65625 C881.46342604 2033.79420353 895.5034663 2037.86876064 909.56420898 2041.87304688 C915.50257285 2043.56633569 921.43078543 2045.29128421 927.35302734 2047.04003906 C934.44361762 2049.13374975 941.5410025 2051.20393789 948.6394043 2053.27099609 C953.79397482 2054.77220146 958.94732194 2056.2772871 964.09765625 2057.79296875 C973.66622154 2060.60433937 983.2413746 2063.35717385 992.875 2065.9375 C1002.118581 2068.41826165 1011.25583654 2071.19297178 1020.39355469 2074.03662109 C1028.80514269 2076.64948154 1037.25060871 2079.10970611 1045.7265625 2081.50390625 C1051.49479543 2083.13377501 1057.24742565 2084.81583855 1063 2086.5 C1070.63851984 2088.73451367 1078.28297137 2090.94595301 1085.9375 2093.125 C1093.45023866 2095.26441689 1100.94960893 2097.44476851 1108.44140625 2099.65625 C1122.46342604 2103.79420353 1136.5034663 2107.86876064 1150.56420898 2111.87304688 C1157.20060146 2113.76537436 1163.82287346 2115.70254489 1170.44140625 2117.65625 C1184.46342604 2121.79420353 1198.5034663 2125.86876064 1212.56420898 2129.87304688 C1219.20060146 2131.76537436 1225.82287346 2133.70254489 1232.44140625 2135.65625 C1246.46342604 2139.79420353 1260.5034663 2143.86876064 1274.56420898 2147.87304688 C1280.50257285 2149.56633569 1286.43078543 2151.29128421 1292.35302734 2153.04003906 C1299.44361762 2155.13374975 1306.5410025 2157.20393789 1313.6394043 2159.27099609 C1318.79397482 2160.77220146 1323.94732194 2162.2772871 1329.09765625 2163.79296875 C1338.66622154 2166.60433937 1348.2413746 2169.35717385 1357.875 2171.9375 C1367.118581 2174.41826165 1376.25583654 2177.19297178 1385.39355469 2180.03662109 C1393.80514269 2182.64948154 1402.25060871 2185.10970611 1410.7265625 2187.50390625 C1416.49479543 2189.13377501 1422.24742565 2190.81583855 1428 2192.5 C1435.63851984 2194.73451367 1443.28297137 2196.94595301 1450.9375 2199.125 C1458.45023866 2201.26441689 1465.94960893 2203.44476851 1473.44140625 2205.65625 C1487.46342604 2209.79420353 1501.5034663 2213.86876064 1515.56420898 2217.87304688 C1522.20060146 2219.76537436 1528.82287346 2221.70254489 1535.44140625 2223.65625 C1549.46342604 2227.79420353 1563.5034663 2231.86876064 1577.56420898 2235.87304688 C1584.20060146 2237.76537436 1590.82287346 2239.70254489 1597.44140625 2241.65625 C1611.46342604 2245.79420353 1625.5034663 2249.86876064 1639.56420898 2253.87304688 C1645.50257285 2255.56633569 1651.43078543 2257.29128421 1657.35302734 2259.04003906 C1664.44361762 2261.13374975 1671.5410025 2263.20393789 1678.6394043 2265.27099609 C1683.79397482 2266.77220146 1688.94732194 2268.2772871 1694.09765625 2269.79296875 C1704.10600223 2272.73422334 1714.12540362 2275.62247889 1724.1875 2278.375 C1725.10225098 2278.62580322 1726.01700195 2278.87660645 1726.95947266 2279.13500977 C1728.23830322 2279.48196899 1728.23830322 2279.48196899 1729.54296875 2279.8359375 C1730.28571045 2280.03751465 1731.02845215 2280.2390918 1731.79370117 2280.44677734 C1734.18278172 2281.04583195 1736.58374443 2281.52390698 1739 2282 C1739.00550258 2232.76863609 1739.01077169 2183.53727216 1739.01586914 2134.3059082 C1739.01596894 2133.34224993 1739.01606874 2132.37859166 1739.01617156 2131.38573162 C1739.02687411 2027.98063985 1739.03609313 1924.57554807 1739.04234314 1821.17045593 C1739.04248259 1818.86946179 1739.04262204 1816.56846765 1739.04276149 1814.26747351 C1739.04568517 1765.95236309 1739.04840177 1717.63725266 1739.05087968 1669.32214221 C1739.05212492 1645.04621052 1739.05340989 1620.77027884 1739.05473244 1596.49434716 C1739.05493169 1592.83277234 1739.05512981 1589.17119752 1739.05532788 1585.50962271 C1739.0583822 1529.23110573 1739.06228026 1472.95258897 1739.06866455 1416.67407227 C1739.0688699 1414.8636796 1739.0688699 1414.8636796 1739.0690794 1413.01671334 C1739.07129133 1393.56165384 1739.07357511 1374.10659435 1739.07586844 1354.65153487 C1739.08248551 1298.50748025 1739.08855762 1242.36342581 1739.09113979 1186.21937084 C1739.09119333 1185.06095742 1739.09124686 1183.902544 1739.09130202 1182.70902714 C1739.0924687 1157.2582669 1739.09336313 1131.80750667 1739.09400098 1106.35674641 C1739.09426255 1096.11094584 1739.09456317 1085.86514528 1739.09487724 1075.61934471 C1739.09491067 1074.49809656 1739.0949441 1073.3768484 1739.09497854 1072.22162303 C1739.09606885 1036.29776847 1739.10031884 1000.37391517 1739.10628221 964.45006112 C1739.11229141 928.16080553 1739.11508718 891.87155115 1739.11362399 855.58229504 C1739.113421 850.52865004 1739.11325358 845.47500503 1739.11310768 840.42136002 C1739.1130778 839.43099513 1739.11304792 838.44063025 1739.11301713 837.42025431 C1739.11266421 822.88721975 1739.11510311 808.35418758 1739.11920547 793.82115364 C1739.12507473 772.50575254 1739.12674442 751.19035541 1739.12025452 729.87495422 C1739.1198905 728.63686734 1739.1198905 728.63686734 1739.11951914 727.3737686 C1739.1025989 672.91126602 1738.82490223 618.45718893 1738 564 C1736.72959103 563.51886396 1735.45872828 563.03892596 1734.18767738 562.5594883 C1733.480015 562.29209331 1732.77235261 562.02469833 1732.04324591 561.74920046 C1729.4322775 560.79183222 1726.79456771 559.98983403 1724.12255859 559.22021484 C1723.01584808 558.89971161 1721.90913757 558.57920837 1720.76889038 558.24899292 C1719.57414093 557.90643463 1718.37939148 557.56387634 1717.1484375 557.2109375 C1715.85030757 556.83616088 1714.55226535 556.46108037 1713.25430298 556.08572388 C1710.44657452 555.27436559 1707.63830195 554.46492895 1704.82958984 553.65698242 C1700.27997922 552.3481568 1695.73166337 551.03487225 1691.18359375 549.72070312 C1689.59271279 549.26104603 1688.00183144 548.80139028 1686.41094971 548.34173584 C1685.60936684 548.11012505 1684.80778397 547.87851425 1683.98191071 547.63988495 C1681.49313515 546.92093384 1679.00424048 546.20239636 1676.51531982 545.48394775 C1658.82681547 540.37719229 1641.14865133 535.23497809 1623.47076416 530.09161377 C1614.30375545 527.42452665 1605.13629558 524.75899109 1595.96875 522.09375 C1595.07133213 521.83284199 1594.17391426 521.57193398 1593.24930191 521.30311966 C1576.35935614 516.39292208 1559.46612381 511.4941146 1542.57149124 506.60007095 C1516.39779739 499.018058 1490.22871287 491.42029097 1464.0625 483.8125 C1462.71411482 483.42046576 1462.71411482 483.42046576 1461.33848953 483.02051163 C1446.6335204 478.74511599 1431.9287707 474.46896586 1417.2240448 470.19273376 C1403.46196529 466.19063803 1389.69981019 462.18880241 1375.9375 458.1875 C1375.03720692 457.925741 1374.13691383 457.66398201 1373.20933914 457.39429092 C1347.26223058 449.85029993 1321.31164983 442.31840652 1295.35714722 434.79989624 C1269.97484129 427.44698782 1244.5990002 420.07193257 1219.2243042 412.69281006 C1195.00980869 405.6511412 1170.79327064 398.61664531 1146.57149124 391.60007095 C1120.39779739 384.018058 1094.22871287 376.42029097 1068.0625 368.8125 C1067.16357655 368.55114384 1066.26465309 368.28978767 1065.33848953 368.02051163 C1050.6335204 363.74511599 1035.9287707 359.46896586 1021.2240448 355.19273376 C1007.46196529 351.19063803 993.69981019 347.18880241 979.9375 343.1875 C979.03720692 342.925741 978.13691383 342.66398201 977.20933914 342.39429092 C951.26223058 334.85029993 925.31164983 327.31840652 899.35714722 319.79989624 C873.97484129 312.44698782 848.5990002 305.07193257 823.2243042 297.69281006 C799.00980869 290.6511412 774.79327064 283.61664531 750.57149124 276.60007095 C724.39779739 269.018058 698.22871287 261.42029097 672.0625 253.8125 C671.16357655 253.55114384 670.26465309 253.28978767 669.33848953 253.02051163 C654.6335204 248.74511599 639.9287707 244.46896586 625.2240448 240.19273376 C611.46196529 236.19063803 597.69981019 232.18880241 583.9375 228.1875 C583.03720692 227.925741 582.13691383 227.66398201 581.20933914 227.39429092 C555.26223058 219.85029993 529.31164983 212.31840652 503.35714722 204.79989624 C477.97588173 197.44728922 452.60104533 190.07265699 427.22742844 182.6937027 C402.17601295 175.40847357 377.12177725 168.13313972 352.0625 160.875 C326.69342296 153.52713023 301.33254151 146.15138268 275.97483063 138.76438904 C250.92636639 131.46758184 225.87314569 124.18749605 200.81307983 116.93063354 C183.9280313 112.04106864 167.04548321 107.14303718 150.16687584 102.23127747 C147.21819654 101.37320614 144.26948037 100.51526164 141.320755 99.65734863 C132.67617045 97.14216848 124.03171108 94.62656381 115.38798141 92.10844707 C111.81697606 91.06836895 108.24570849 90.0291933 104.67438126 88.99022102 C103.02625218 88.5105318 101.37823373 88.03046229 99.73034286 87.54995537 C98.9579842 87.32475779 98.18562553 87.0995602 97.38986206 86.86753845 C96.72395491 86.67324721 96.05804775 86.47895597 95.37196159 86.27877712 C85.59860134 83.44366271 75.80776551 80.72437931 66 78 Z " fill="#944E25" transform="translate(20,18)"/>
<path d="M0 0 C239.660702 0 239.660702 0 275 12 C276.10190674 12.36085693 276.10190674 12.36085693 277.22607422 12.72900391 C301.53793579 20.75042227 323.37952568 33.40828117 342 51 C343.32941948 52.12962233 344.66263718 53.25479312 346 54.375 C365.81668333 71.769203 379.74986886 95.55366396 389.18603516 119.90136719 C389.88961378 121.71539293 390.62008686 123.51894476 391.35546875 125.3203125 C394.38305426 133.13912557 396.5085513 141.20802311 398.625 149.3125 C399.05921265 150.91919556 399.05921265 150.91919556 399.50219727 152.55834961 C405.82890512 177.64150035 405.44105265 203.18017764 405.39217401 228.84794092 C405.38530804 234.19496929 405.39590156 239.54196974 405.40411377 244.88899231 C405.41737325 255.32949694 405.41460852 265.76993645 405.40587585 276.21044351 C405.39906954 284.70317108 405.39819524 293.19588055 405.4014473 301.68861008 C405.401907 302.90251651 405.40236669 304.11642294 405.40284032 305.36711442 C405.40379961 307.83398125 405.40477225 310.30084808 405.4057581 312.7677149 C405.41428899 335.8363277 405.40451373 358.90490459 405.388357 381.9735115 C405.37495253 401.72324437 405.37728747 421.47292433 405.39111328 441.22265625 C405.40720402 464.21817627 405.41346879 487.21366491 405.40427649 510.20918977 C405.40332095 512.66580033 405.40237783 515.12241089 405.4014473 517.57902145 C405.40098447 518.78738301 405.40052164 519.99574457 405.40004479 521.24072314 C405.39746562 529.71413591 405.40180256 538.1875286 405.40888596 546.66093826 C405.41733995 557.00004289 405.41493927 567.33907927 405.39904372 577.67817618 C405.39121368 582.94288017 405.38797842 588.2074708 405.39799118 593.47217369 C405.4698513 634.65307841 405.4698513 634.65307841 402 653 C401.6446219 654.88266036 401.6446219 654.88266036 401.28206444 656.80335426 C400.7092627 659.62786994 400.04687044 662.4010535 399.3125 665.1875 C399.05831299 666.17105469 398.80412598 667.15460937 398.54223633 668.16796875 C391.62214567 693.88477378 379.25597953 715.65506731 361 735 C360.32710937 735.73734375 359.65421875 736.4746875 358.9609375 737.234375 C342.74945174 754.35661839 320.78274297 765.70454519 299 774 C298.19981445 774.30921387 297.39962891 774.61842773 296.57519531 774.93701172 C205.89964508 809.6156058 83.85051915 792 0 792 C0 530.64 0 269.28 0 0 Z " fill="#EBAB56" transform="translate(552,916)"/>
<path d="M0 0 C317.53219373 0 317.53219373 0 367 16 C367.96969727 16.30212402 368.93939453 16.60424805 369.93847656 16.91552734 C418.48349137 32.12120206 464.97998932 61.05814766 496 102 C496.40992188 102.52819336 496.81984375 103.05638672 497.2421875 103.60058594 C529.75113313 145.55924728 546.43585643 195.92283499 553.25 248.0625 C553.41330811 249.30974854 553.57661621 250.55699707 553.74487305 251.84204102 C555.56844331 266.53844343 556.14994254 281.13151845 556.14044189 295.91879272 C556.14303343 297.5624157 556.14604875 299.20603805 556.1494453 300.84965956 C556.15742655 305.3199034 556.15929985 309.79013111 556.16004276 314.26038122 C556.16190907 319.10060897 556.16946428 323.94082864 556.17617798 328.78105164 C556.18970021 339.34609857 556.19577692 349.91114167 556.20018864 360.47619581 C556.20296238 367.09050163 556.20720181 373.70480602 556.21169281 380.31911087 C556.22387927 398.68080999 556.23417866 417.04250797 556.2375679 435.40421104 C556.23778747 436.57710811 556.23800703 437.75000517 556.23823325 438.95844457 C556.23845153 440.1339435 556.23866981 441.30944242 556.2388947 442.52056253 C556.23933815 444.90205471 556.23978471 447.28354689 556.24023438 449.66503906 C556.2404558 450.84630901 556.24067723 452.02757895 556.24090537 453.24464495 C556.24484554 472.34542823 556.26227845 491.44617318 556.2855939 510.54694168 C556.30941263 530.2211298 556.32177457 549.89529877 556.32293582 569.56950152 C556.32384689 580.58990802 556.32945391 591.6102646 556.34775543 602.6306572 C556.36329947 612.02287329 556.36819404 621.41502406 556.36001733 630.8072506 C556.3561602 635.58315157 556.35679208 640.35892158 556.37107468 645.13480568 C556.45280486 674.14906301 555.72313451 703.19157339 550.0625 731.75 C549.8196688 733.06616803 549.57814756 734.38257837 549.33789062 735.69921875 C547.71047311 744.29576192 545.5009584 752.62067437 543 761 C542.63096268 762.33435892 542.26629906 763.6699543 541.91015625 765.0078125 C541.63042969 766.03648437 541.35070312 767.06515625 541.0625 768.125 C540.78535156 769.15882813 540.50820313 770.19265625 540.22265625 771.2578125 C533.58486877 791.57410773 523.44057269 811.63803527 511 829 C510.58540527 829.58136719 510.17081055 830.16273438 509.74365234 830.76171875 C503.47682696 839.44535788 496.38482078 847.26653962 489 855 C488.39800781 855.65484375 487.79601562 856.3096875 487.17578125 856.984375 C467.74461308 877.54127835 440.87768577 891.57427017 415 902 C413.63633301 902.55349121 413.63633301 902.55349121 412.24511719 903.11816406 C392.60352488 910.98193042 372.27976255 915.22545739 351.5010376 918.855896 C350.05409953 919.10922099 348.60785831 919.36657723 347.16253662 919.62896729 C233.25681466 940.09658754 115.7300176 924 0 924 C0 619.08 0 314.16 0 0 Z M75 66 C75 327.36 75 588.72 75 858 C200.65139127 862.65394184 200.65139127 862.65394184 332 852 C332.92651367 851.83161621 333.85302734 851.66323242 334.80761719 851.48974609 C369.69945661 844.94674205 404.81134838 830.41184045 431 806 C431.5057959 805.53658203 432.0115918 805.07316406 432.53271484 804.59570312 C453.84831909 784.90729579 467.10672733 759.06961497 474.3125 731.1875 C474.54283936 730.31351563 474.77317871 729.43953125 475.01049805 728.5390625 C475.77744758 725.37332 476.39571642 722.20126855 477 719 C477.12595118 718.33403014 477.25190236 717.66806028 477.38167024 716.98190951 C480.97538394 696.94854041 480.43072411 676.68311828 480.39217401 656.41350842 C480.38531732 651.06913325 480.39589722 645.72478623 480.40411377 640.38041687 C480.41738399 629.94030383 480.41460333 619.50025587 480.40587585 609.06014039 C480.39907238 600.56642869 480.39819403 592.0727351 480.4014473 583.57902145 C480.401907 582.36542149 480.40236669 581.15182152 480.40284032 579.9014458 C480.4037996 577.43522736 480.40477224 574.96900892 480.4057581 572.5027905 C480.41429253 549.4303108 480.40450889 526.35786698 480.388357 503.28539316 C480.37495901 483.53627279 480.37728145 463.78720535 480.39111328 444.03808594 C480.40720948 421.04549108 480.41346517 398.0529276 480.40427649 375.06032789 C480.40332095 372.60308862 480.40237784 370.14584935 480.4014473 367.68861008 C480.40075306 365.87560492 480.40075306 365.87560492 480.40004479 364.02597339 C480.39746674 355.55452531 480.40180025 347.08309733 480.40888596 338.61165237 C480.41734635 328.2703606 480.41492636 317.92913704 480.39904372 307.58785297 C480.39122109 302.32291511 480.38796526 297.05809049 480.39799118 291.79315376 C480.49344844 237.0147054 472.66337399 181.98288864 437 138 C436.55962402 137.45279297 436.11924805 136.90558594 435.66552734 136.34179688 C405.10369914 98.62584332 361.94323308 76.75251491 314.25 69.8125 C312.66614502 69.5803479 312.66614502 69.5803479 311.05029297 69.34350586 C233.08394476 58.6864437 153.69132371 66 75 66 Z " fill="#944E25" transform="translate(477,850)"/>
<path d="M0 0 C24.75 0 49.5 0 75 0 C75 283.14 75 566.28 75 858 C207.33 858 339.66 858 476 858 C476 879.78 476 901.56 476 924 C318.92 924 161.84 924 0 924 C0 619.08 0 314.16 0 0 Z " fill="#944E25" transform="translate(1079,850)"/>
</svg>
